<svg xmlns="http://www.w3.org/2000/svg" xmlns:xlink="http://www.w3.org/1999/xlink" version="1.1" width="256" height="256" viewBox="0 0 256 256" xml:space="preserve">

<defs>
</defs>
<g style="stroke: none; stroke-width: 0; stroke-dasharray: none; stroke-linecap: butt; stroke-linejoin: miter; stroke-miterlimit: 10; fill: none; fill-rule: nonzero; opacity: 1;" transform="translate(1.4065934065934016 1.4065934065934016) scale(2.81 2.81)" >
	<path d="M 59.627 27.72 h 24.435 c 3.279 0 5.938 2.659 5.938 5.938 v 45.247 c 0 3.279 -2.659 5.938 -5.938 5.938 H 5.938 C 2.659 84.843 0 82.185 0 78.905 V 33.658 c 0 -3.279 2.659 -5.938 5.938 -5.938 h 26.913" style="stroke: none; stroke-width: 1; stroke-dasharray: none; stroke-linecap: butt; stroke-linejoin: miter; stroke-miterlimit: 10; fill: rgb(188,203,206); fill-rule: nonzero; opacity: 1;" transform=" matrix(1 0 0 1 0 0) " stroke-linecap="round" />
	<path d="M 67.162 62.685 h -0.257 c -3.127 0 -5.661 -2.535 -5.661 -5.661 v -2.865 c 0 -3.127 2.535 -5.661 5.661 -5.661 h 0.257 c 3.127 0 5.661 2.535 5.661 5.661 v 2.865 C 72.823 60.15 70.288 62.685 67.162 62.685 z" style="stroke: none; stroke-width: 1; stroke-dasharray: none; stroke-linecap: butt; stroke-linejoin: miter; stroke-miterlimit: 10; fill: rgb(46,140,204); fill-rule: nonzero; opacity: 1;" transform=" matrix(1 0 0 1 0 0) " stroke-linecap="round" />
	<path d="M 77.378 74.265 V 73.03 c 0 -5.713 -4.632 -10.345 -10.345 -10.345 h 0 c -5.713 0 -10.345 4.632 -10.345 10.345 v 1.235 H 77.378 z" style="stroke: none; stroke-width: 1; stroke-dasharray: none; stroke-linecap: butt; stroke-linejoin: miter; stroke-miterlimit: 10; fill: rgb(46,140,204); fill-rule: nonzero; opacity: 1;" transform=" matrix(1 0 0 1 0 0) " stroke-linecap="round" />
	<path d="M 46.239 43.757 c 6.937 -3.186 13.875 -8.245 13.875 -21.831 v -9.951 c -4.625 -0.227 -9.25 -2.499 -13.875 -6.818 c -4.625 4.318 -9.25 6.591 -13.875 6.818 v 9.951 C 32.364 35.512 39.301 40.571 46.239 43.757 L 46.239 43.757 z" style="stroke: none; stroke-width: 1; stroke-dasharray: none; stroke-linecap: butt; stroke-linejoin: miter; stroke-miterlimit: 10; fill: rgb(46,140,204); fill-rule: nonzero; opacity: 1;" transform=" matrix(1 0 0 1 0 0) " stroke-linecap="round" />
	<path d="M 47.03 34.459 h -1.583 c -3.153 0 -5.709 -2.556 -5.709 -5.709 v -5.584 h 13 v 5.584 C 52.739 31.903 50.183 34.459 47.03 34.459 z" style="stroke: none; stroke-width: 1; stroke-dasharray: none; stroke-linecap: butt; stroke-linejoin: miter; stroke-miterlimit: 10; fill: rgb(254,183,86); fill-rule: nonzero; opacity: 1;" transform=" matrix(1 0 0 1 0 0) " stroke-linecap="round" />
	<path d="M 50.346 62.608 h -38.92 c -0.552 0 -1 -0.447 -1 -1 s 0.448 -1 1 -1 h 38.92 c 0.553 0 1 0.447 1 1 S 50.898 62.608 50.346 62.608 z" style="stroke: none; stroke-width: 1; stroke-dasharray: none; stroke-linecap: butt; stroke-linejoin: miter; stroke-miterlimit: 10; fill: rgb(46,140,204); fill-rule: nonzero; opacity: 1;" transform=" matrix(1 0 0 1 0 0) " stroke-linecap="round" />
	<path d="M 43.156 74.265 h -31.73 c -0.552 0 -1 -0.447 -1 -1 s 0.448 -1 1 -1 h 31.73 c 0.552 0 1 0.447 1 1 S 43.708 74.265 43.156 74.265 z" style="stroke: none; stroke-width: 1; stroke-dasharray: none; stroke-linecap: butt; stroke-linejoin: miter; stroke-miterlimit: 10; fill: rgb(46,140,204); fill-rule: nonzero; opacity: 1;" transform=" matrix(1 0 0 1 0 0) " stroke-linecap="round" />
	<path d="M 50.346 50.936 h -38.92 c -0.552 0 -1 -0.447 -1 -1 s 0.448 -1 1 -1 h 38.92 c 0.553 0 1 0.447 1 1 S 50.898 50.936 50.346 50.936 z" style="stroke: none; stroke-width: 1; stroke-dasharray: none; stroke-linecap: butt; stroke-linejoin: miter; stroke-miterlimit: 10; fill: rgb(46,140,204); fill-rule: nonzero; opacity: 1;" transform=" matrix(1 0 0 1 0 0) " stroke-linecap="round" />
	<path d="M 46.24 29.54 c -0.07 0 -0.131 -0.01 -0.2 -0.02 c -0.06 -0.01 -0.12 -0.03 -0.18 -0.06 c -0.06 -0.02 -0.12 -0.05 -0.18 -0.09 c -0.05 -0.03 -0.1 -0.08 -0.15 -0.12 c -0.04 -0.05 -0.09 -0.1 -0.12 -0.15 c -0.04 -0.06 -0.07 -0.12 -0.09 -0.18 c -0.03 -0.06 -0.05 -0.12 -0.06 -0.18 c -0.01 -0.07 -0.02 -0.14 -0.02 -0.2 c 0 -0.26 0.11 -0.52 0.29 -0.71 c 0.05 -0.04 0.1 -0.08 0.15 -0.12 c 0.06 -0.04 0.12 -0.07 0.18 -0.09 c 0.06 -0.03 0.12 -0.05 0.18 -0.06 c 0.33 -0.06 0.67 0.04 0.899 0.27 c 0.19 0.19 0.301 0.45 0.301 0.71 c 0 0.06 -0.011 0.13 -0.021 0.2 c -0.01 0.06 -0.03 0.12 -0.06 0.18 c -0.021 0.06 -0.051 0.12 -0.091 0.18 c -0.039 0.05 -0.079 0.1 -0.13 0.15 C 46.76 29.43 46.5 29.54 46.24 29.54 z" style="stroke: none; stroke-width: 1; stroke-dasharray: none; stroke-linecap: butt; stroke-linejoin: miter; stroke-miterlimit: 10; fill: rgb(46,140,204); fill-rule: nonzero; opacity: 1;" transform=" matrix(1 0 0 1 0 0) " stroke-linecap="round" />
	<path d="M 49.836 24.741 c -0.553 0 -1 -0.448 -1 -1 v -5.485 c 0 -1.432 -1.165 -2.597 -2.597 -2.597 c -1.432 0 -2.598 1.165 -2.598 2.597 v 5.485 c 0 0.552 -0.448 1 -1 1 s -1 -0.448 -1 -1 v -5.485 c 0 -2.535 2.062 -4.597 4.597 -4.597 c 2.535 0 4.598 2.062 4.598 4.597 v 5.485 C 50.836 24.293 50.389 24.741 49.836 24.741 z" style="stroke: none; stroke-width: 1; stroke-dasharray: none; stroke-linecap: butt; stroke-linejoin: miter; stroke-miterlimit: 10; fill: rgb(254,183,86); fill-rule: nonzero; opacity: 1;" transform=" matrix(1 0 0 1 0 0) " stroke-linecap="round" />
</g>
</svg>