<svg xmlns="http://www.w3.org/2000/svg" xmlns:xlink="http://www.w3.org/1999/xlink" version="1.1" width="256" height="256" viewBox="0 0 256 256" xml:space="preserve">

<defs>
</defs>
<g style="stroke: none; stroke-width: 0; stroke-dasharray: none; stroke-linecap: butt; stroke-linejoin: miter; stroke-miterlimit: 10; fill: none; fill-rule: nonzero; opacity: 1;" transform="translate(1.4065934065934016 1.4065934065934016) scale(2.81 2.81)" >
	<path d="M 57.128 62.032 V 50.243 c 5.479 -0.269 10.957 -2.961 16.436 -8.077 c 3.996 3.731 7.992 6.167 11.988 7.32 c 0.153 -1.475 0.234 -2.971 0.234 -4.486 c 0 -23.689 -19.204 -42.893 -42.893 -42.893 S 0 21.311 0 45 c 0 23.689 19.204 42.893 42.893 42.893 c 7.88 0 15.258 -2.135 21.604 -5.843 C 60.216 77.96 57.128 71.894 57.128 62.032 z" style="stroke: none; stroke-width: 1; stroke-dasharray: none; stroke-linecap: butt; stroke-linejoin: miter; stroke-miterlimit: 10; fill: rgb(221,234,237); fill-rule: nonzero; opacity: 1;" transform=" matrix(1 0 0 1 0 0) " stroke-linecap="round" />
	<path d="M 73.564 87.893 C 81.782 84.119 90 78.126 90 62.032 V 50.243 c -5.479 -0.269 -10.957 -2.961 -16.436 -8.077 c -5.479 5.116 -10.957 7.808 -16.436 8.077 v 11.789 C 57.128 78.126 65.346 84.119 73.564 87.893 L 73.564 87.893 z" style="stroke: none; stroke-width: 1; stroke-dasharray: none; stroke-linecap: butt; stroke-linejoin: miter; stroke-miterlimit: 10; fill: rgb(46,140,204); fill-rule: nonzero; opacity: 1;" transform=" matrix(1 0 0 1 0 0) " stroke-linecap="round" />
	<path d="M 73.752 74.865 h -0.376 c -3.21 0 -5.812 -2.602 -5.812 -5.812 v -4.612 h 12 v 4.612 C 79.564 72.263 76.962 74.865 73.752 74.865 z" style="stroke: none; stroke-width: 1; stroke-dasharray: none; stroke-linecap: butt; stroke-linejoin: miter; stroke-miterlimit: 10; fill: rgb(254,183,86); fill-rule: nonzero; opacity: 1;" transform=" matrix(1 0 0 1 0 0) " stroke-linecap="round" />
	<path d="M 24.528 55.926 c -0.305 0 -0.606 -0.139 -0.803 -0.402 c -6.05 -8.118 -6.74 -17.34 -1.894 -25.302 c 5.4 -8.871 16.47 -14.136 26.333 -12.509 c 5.742 0.945 15.95 5.098 19.801 22.288 c 0.121 0.539 -0.218 1.074 -0.757 1.194 c -0.537 0.123 -1.073 -0.218 -1.194 -0.757 c -2.664 -11.891 -9.119 -19.261 -18.175 -20.752 c -9.09 -1.495 -19.306 3.372 -24.299 11.576 c -2.586 4.248 -5.792 12.894 1.789 23.066 c 0.33 0.443 0.239 1.069 -0.204 1.399 C 24.945 55.861 24.736 55.926 24.528 55.926 z" style="stroke: none; stroke-width: 1; stroke-dasharray: none; stroke-linecap: butt; stroke-linejoin: miter; stroke-miterlimit: 10; fill: rgb(46,140,204); fill-rule: nonzero; opacity: 1;" transform=" matrix(1 0 0 1 0 0) " stroke-linecap="round" />
	<path d="M 24.54 60.829 c -0.287 0 -0.576 -0.021 -0.865 -0.062 c -1.56 -0.228 -2.938 -1.05 -3.88 -2.313 c -8.075 -10.836 -8.159 -23.385 -0.223 -33.57 C 28.088 13.956 42.87 9.597 54.723 14.518 c 6.127 2.542 14.186 8.634 17.779 23.212 c 0.133 0.536 -0.195 1.078 -0.731 1.21 c -0.534 0.134 -1.078 -0.195 -1.21 -0.731 c -3.395 -13.767 -10.903 -19.478 -16.605 -21.844 c -11.036 -4.583 -24.833 -0.483 -32.806 9.748 c -7.349 9.432 -7.256 21.075 0.249 31.146 c 0.623 0.836 1.534 1.379 2.565 1.529 c 1.036 0.151 2.06 -0.109 2.896 -0.732 c 0.836 -0.623 1.379 -1.533 1.53 -2.564 c 0.151 -1.032 -0.109 -2.061 -0.732 -2.896 c -7.335 -9.844 -3.368 -17.811 -0.35 -21.685 c 5.76 -7.391 15.931 -10.545 23.657 -7.336 c 6.394 2.654 10.739 9.299 12.564 19.215 c 0.1 0.543 -0.259 1.064 -0.803 1.165 c -0.54 0.104 -1.063 -0.26 -1.164 -0.802 c -1.697 -9.218 -5.627 -15.349 -11.365 -17.73 c -6.924 -2.875 -16.085 0.013 -21.312 6.718 c -2.668 3.424 -6.167 10.479 0.376 19.26 c 0.942 1.265 1.336 2.82 1.108 4.38 c -0.228 1.561 -1.049 2.938 -2.314 3.88 C 27.024 60.426 25.801 60.829 24.54 60.829 z" style="stroke: none; stroke-width: 1; stroke-dasharray: none; stroke-linecap: butt; stroke-linejoin: miter; stroke-miterlimit: 10; fill: rgb(46,140,204); fill-rule: nonzero; opacity: 1;" transform=" matrix(1 0 0 1 0 0) " stroke-linecap="round" />
	<path d="M 24.541 65.727 c -3.3 0 -6.559 -1.502 -8.677 -4.345 C 6.532 48.86 6.472 33.72 15.706 21.87 C 25.552 9.235 42.75 4.241 56.603 9.989 c 0.51 0.212 0.752 0.797 0.54 1.307 c -0.212 0.51 -0.796 0.75 -1.308 0.541 c -13.032 -5.411 -29.249 -0.675 -38.552 11.263 c -8.656 11.109 -8.585 25.32 0.185 37.087 c 2.9 3.894 8.429 4.701 12.321 1.8 c 3.893 -2.901 4.7 -8.429 1.799 -12.321 c -4.055 -5.442 -4.199 -10.886 -0.414 -15.742 c 4.377 -5.617 12.244 -8.174 17.909 -5.822 c 5.057 2.099 8.46 7.889 9.845 16.745 c 0.085 0.545 -0.288 1.057 -0.834 1.142 c -0.545 0.092 -1.058 -0.288 -1.143 -0.833 c -1.271 -8.13 -4.257 -13.388 -8.635 -15.206 c -4.875 -2.024 -11.714 0.262 -15.565 5.205 c -3.262 4.186 -3.118 8.542 0.44 13.317 c 3.56 4.776 2.57 11.56 -2.208 15.12 C 29.05 65.031 26.786 65.727 24.541 65.727 z" style="stroke: none; stroke-width: 1; stroke-dasharray: none; stroke-linecap: butt; stroke-linejoin: miter; stroke-miterlimit: 10; fill: rgb(46,140,204); fill-rule: nonzero; opacity: 1;" transform=" matrix(1 0 0 1 0 0) " stroke-linecap="round" />
	<path d="M 28.263 79.567 c -0.42 0 -0.811 -0.266 -0.949 -0.686 c -0.174 -0.524 0.111 -1.091 0.635 -1.264 c 8.203 -2.714 14.762 -9.037 17.116 -16.502 c 2.127 -6.747 0.679 -13.767 -4.188 -20.299 c -0.33 -0.443 -0.239 -1.069 0.204 -1.399 c 0.444 -0.33 1.07 -0.238 1.399 0.204 c 6.656 8.932 6.117 16.945 4.493 22.096 c -2.544 8.067 -9.593 14.888 -18.396 17.799 C 28.473 79.551 28.367 79.567 28.263 79.567 z" style="stroke: none; stroke-width: 1; stroke-dasharray: none; stroke-linecap: butt; stroke-linejoin: miter; stroke-miterlimit: 10; fill: rgb(46,140,204); fill-rule: nonzero; opacity: 1;" transform=" matrix(1 0 0 1 0 0) " stroke-linecap="round" />
	<path d="M 32.869 83.568 c -0.386 0 -0.754 -0.225 -0.918 -0.602 c -0.22 -0.507 0.013 -1.096 0.52 -1.315 c 5.079 -2.205 9.558 -5.673 12.953 -10.028 c 8.021 -10.295 7.92 -23.002 -0.27 -33.993 c -0.692 -0.928 -1.704 -1.532 -2.849 -1.699 c -1.145 -0.166 -2.288 0.122 -3.216 0.813 s -1.532 1.704 -1.699 2.849 c -0.167 1.146 0.122 2.287 0.813 3.215 c 7.946 10.665 3.65 19.292 0.382 23.486 c -4.33 5.557 -11.235 9.122 -18.02 9.308 c -0.551 0.017 -1.012 -0.42 -1.027 -0.973 c -0.015 -0.552 0.42 -1.012 0.972 -1.027 c 6.204 -0.169 12.525 -3.439 16.498 -8.536 c 2.918 -3.745 6.745 -11.462 -0.408 -21.062 c -1.011 -1.356 -1.434 -3.025 -1.189 -4.7 c 0.244 -1.674 1.126 -3.153 2.482 -4.164 c 2.8 -2.088 6.777 -1.507 8.864 1.294 c 8.761 11.755 8.852 25.37 0.244 36.417 c -3.6 4.62 -8.349 8.297 -13.734 10.634 C 33.137 83.542 33.002 83.568 32.869 83.568 z" style="stroke: none; stroke-width: 1; stroke-dasharray: none; stroke-linecap: butt; stroke-linejoin: miter; stroke-miterlimit: 10; fill: rgb(46,140,204); fill-rule: nonzero; opacity: 1;" transform=" matrix(1 0 0 1 0 0) " stroke-linecap="round" />
	<path d="M 73.56 70.38 c -0.13 0 -0.26 -0.03 -0.38 -0.08 s -0.229 -0.12 -0.32 -0.22 c -0.1 -0.09 -0.17 -0.2 -0.22 -0.32 s -0.08 -0.25 -0.08 -0.38 c 0 -0.14 0.03 -0.26 0.08 -0.39 c 0.05 -0.12 0.12 -0.23 0.22 -0.32 c 0.36 -0.37 1.04 -0.37 1.41 0 c 0.09 0.09 0.17 0.2 0.221 0.32 c 0.05 0.13 0.069 0.26 0.069 0.39 s -0.02 0.26 -0.069 0.38 c -0.051 0.12 -0.131 0.23 -0.221 0.32 C 74.08 70.27 73.83 70.38 73.56 70.38 z" style="stroke: none; stroke-width: 1; stroke-dasharray: none; stroke-linecap: butt; stroke-linejoin: miter; stroke-miterlimit: 10; fill: rgb(46,140,204); fill-rule: nonzero; opacity: 1;" transform=" matrix(1 0 0 1 0 0) " stroke-linecap="round" />
	<path d="M 77.227 65.489 c -0.553 0 -1 -0.447 -1 -1 v -5.584 c 0 -1.468 -1.194 -2.662 -2.663 -2.662 c -1.468 0 -2.662 1.194 -2.662 2.662 v 5.584 c 0 0.553 -0.447 1 -1 1 s -1 -0.447 -1 -1 v -5.584 c 0 -2.57 2.092 -4.662 4.662 -4.662 c 2.571 0 4.663 2.092 4.663 4.662 v 5.584 C 78.227 65.042 77.779 65.489 77.227 65.489 z" style="stroke: none; stroke-width: 1; stroke-dasharray: none; stroke-linecap: butt; stroke-linejoin: miter; stroke-miterlimit: 10; fill: rgb(254,183,86); fill-rule: nonzero; opacity: 1;" transform=" matrix(1 0 0 1 0 0) " stroke-linecap="round" />
</g>
</svg>